<svg width="58" height="58" viewBox="0 0 58 58" fill="none" xmlns="http://www.w3.org/2000/svg">
<g clip-path="url(#clip0_79_958)">
<path fill-rule="evenodd" clip-rule="evenodd" d="M29 0C12.9839 0 0 12.9839 0 29C0 45.0161 12.9839 58 29 58C45.0161 58 58 45.0161 58 29C58 12.9839 45.0161 0 29 0ZM16.9414 28.9191C16.5579 28.5617 16.0506 28.3671 15.5264 28.3764C15.0022 28.3856 14.5021 28.598 14.1314 28.9687C13.7607 29.3393 13.5484 29.8395 13.5392 30.3636C13.5299 30.8878 13.7245 31.3951 14.0819 31.7786L22.1749 39.8716C22.5542 40.2505 23.0685 40.4633 23.6047 40.4633C24.1408 40.4633 24.6551 40.2505 25.0344 39.8716L43.9181 20.9879C44.2755 20.6044 44.4701 20.0971 44.4608 19.5729C44.4516 19.0488 44.2393 18.5486 43.8686 18.1779C43.4979 17.8073 42.9978 17.5949 42.4736 17.5857C41.9494 17.5764 41.4421 17.771 41.0586 18.1284L23.6047 35.5823L16.9414 28.9191Z" fill="#FE6F61"/>
</g>
<defs>
<clipPath id="clip0_79_958">
<rect width="58" height="58" fill="white"/>
</clipPath>
</defs>
</svg>
