<svg width="24" height="24" viewBox="0 0 24 24" fill="none" xmlns="http://www.w3.org/2000/svg">
<g clip-path="url(#clip0_84_260)">
<path d="M17.1724 0C15.0941 0 13.2497 0.951577 12 2.58714C10.7503 0.951577 8.90586 0 6.82759 0C5.01747 0.00254046 3.28212 0.837762 2.00217 2.32246C0.722226 3.80717 0.0021901 5.82013 0 7.91981C0 16.6004 10.9459 23.5362 11.4114 23.8278C11.5923 23.9408 11.7945 24 12 24C12.2055 24 12.4077 23.9408 12.5886 23.8278C13.0541 23.5362 24 16.6004 24 7.91981C23.9978 5.82013 23.2778 3.80717 21.9978 2.32246C20.7179 0.837762 18.9825 0.00254046 17.1724 0ZM16.6045 17.0828C15.1637 18.501 13.6236 19.7773 12 20.8987C10.3764 19.7773 8.83627 18.501 7.39552 17.0828C5.15379 14.852 2.48276 11.4501 2.48276 7.91981C2.48276 6.58315 2.94052 5.30124 3.75533 4.35608C4.57014 3.41092 5.67527 2.87993 6.82759 2.87993C8.66897 2.87993 10.2103 4.0079 10.8507 5.82466C10.9439 6.0895 11.103 6.31614 11.3077 6.47568C11.5124 6.63522 11.7534 6.72042 12 6.72042C12.2466 6.72042 12.4876 6.63522 12.6923 6.47568C12.897 6.31614 13.0561 6.0895 13.1493 5.82466C13.7897 4.0079 15.331 2.87993 17.1724 2.87993C18.3247 2.87993 19.4299 3.41092 20.2447 4.35608C21.0595 5.30124 21.5172 6.58315 21.5172 7.91981C21.5172 11.4501 18.8462 14.852 16.6045 17.0828Z" fill="#A3A3A3"/>
</g>
<defs>
<clipPath id="clip0_84_260">
<rect width="24" height="24" fill="white"/>
</clipPath>
</defs>
</svg>
