<svg width="24" height="24" viewBox="0 0 24 24" fill="none" xmlns="http://www.w3.org/2000/svg">
<g clip-path="url(#clip0_84_261)">
<path d="M24 7.75183C24 16.5039 12.8796 23.5881 12.4061 23.8806C12.2813 23.959 12.1417 24 12 24C11.8583 24 11.7187 23.959 11.5939 23.8806C11.1204 23.5881 0 16.5039 0 7.75183C0.00198508 5.69663 0.702493 3.72626 1.94784 2.27302C3.19319 0.819769 4.88167 0.00231647 6.64286 0C8.85536 0 10.7925 1.11026 12 2.98695C13.2075 1.11026 15.1446 0 17.3571 0C19.1183 0.00231647 20.8068 0.819769 22.0522 2.27302C23.2975 3.72626 23.998 5.69663 24 7.75183Z" fill="#FE6F61"/>
</g>
<defs>
<clipPath id="clip0_84_261">
<rect width="24" height="24" fill="white"/>
</clipPath>
</defs>
</svg>
