<svg width="30" height="30" viewBox="0 0 30 30" fill="none" xmlns="http://www.w3.org/2000/svg">
<path d="M11.0143 5.77121C12.7881 2.5904 13.6742 1 15 1C16.3258 1 17.2119 2.5904 18.9857 5.77121L19.4449 6.59442C19.9489 7.49882 20.2009 7.95102 20.5929 8.24922C20.9849 8.54742 21.4748 8.65802 22.4548 8.87922L23.3452 9.08082C26.7891 9.86063 28.5097 10.2498 28.9199 11.5672C29.3287 12.8832 28.1555 14.2566 25.8077 17.002L25.2002 17.7119C24.5338 18.4917 24.1992 18.8823 24.0494 19.3639C23.8996 19.8469 23.95 20.3677 24.0508 21.4079L24.1432 22.3557C24.4974 26.0195 24.6752 27.8507 23.6028 28.6641C22.5304 29.4789 20.9177 28.7355 17.6949 27.2515L16.8592 26.8679C15.9436 26.4451 15.4858 26.2351 15 26.2351C14.5142 26.2351 14.0564 26.4451 13.1408 26.8679L12.3065 27.2515C9.08234 28.7355 7.46958 29.4775 6.3986 28.6655C5.32483 27.8507 5.50262 26.0195 5.85681 22.3557L5.94921 21.4093C6.05001 20.3677 6.10041 19.8469 5.94921 19.3653C5.80082 18.8823 5.46622 18.4917 4.79984 17.7133L4.19225 17.002C1.84451 14.258 0.671337 12.8846 1.08013 11.5672C1.49032 10.2498 3.21228 9.85923 6.6562 9.08082L7.54658 8.87922C8.52515 8.65802 9.01374 8.54742 9.40713 8.24922C9.79912 7.95102 10.0511 7.49882 10.5551 6.59442L11.0143 5.77121Z" fill="#484645"/>
<path fill-rule="evenodd" clip-rule="evenodd" d="M15 1C13.6749 1 12.789 2.58873 11.0171 5.76618L11.0143 5.77121L10.5551 6.59442L10.5551 6.59443C10.0511 7.49882 9.79912 7.95102 9.40713 8.24922C9.01374 8.54742 8.52515 8.65802 7.54658 8.87922L6.6562 9.08082C3.21228 9.85923 1.49032 10.2498 1.08013 11.5672C0.671337 12.8846 1.84451 14.258 4.19225 17.002L4.79984 17.7133L4.80136 17.715C5.46673 18.4922 5.80093 18.8826 5.94921 19.3653C6.10041 19.8469 6.05001 20.3677 5.94921 21.4093L5.85681 22.3557L5.85611 22.363C5.50239 26.0219 5.32554 27.8512 6.3986 28.6655C7.46958 29.4775 9.08234 28.7355 12.3065 27.2515L13.1408 26.8679C14.0564 26.4451 14.5142 26.2351 15 26.2351V1Z" fill="#FE6F61"/>
</svg>
