<svg width="18" height="18" viewBox="0 0 18 18" fill="none" xmlns="http://www.w3.org/2000/svg">
<g clip-path="url(#clip0_79_362)">
<g clip-path="url(#clip1_79_362)">
<path d="M1.5 18C1.5 18 0 18 0 16.5C0 15 1.5 10.5 9 10.5C16.5 10.5 18 15 18 16.5C18 18 16.5 18 16.5 18H1.5ZM9 9C10.1935 9 11.3381 8.52589 12.182 7.68198C13.0259 6.83807 13.5 5.69347 13.5 4.5C13.5 3.30653 13.0259 2.16193 12.182 1.31802C11.3381 0.474106 10.1935 0 9 0C7.80653 0 6.66193 0.474106 5.81802 1.31802C4.97411 2.16193 4.5 3.30653 4.5 4.5C4.5 5.69347 4.97411 6.83807 5.81802 7.68198C6.66193 8.52589 7.80653 9 9 9Z" fill="#DEDEDE"/>
</g>
</g>
<defs>
<clipPath id="clip0_79_362">
<rect width="18" height="18" fill="white"/>
</clipPath>
<clipPath id="clip1_79_362">
<rect width="18" height="18" fill="white"/>
</clipPath>
</defs>
</svg>
