<svg width="18" height="18" viewBox="0 0 18 18" fill="none" xmlns="http://www.w3.org/2000/svg">
<g clip-path="url(#clip0_77_141)">
<path fill-rule="evenodd" clip-rule="evenodd" d="M9 18C13.9706 18 18 13.9706 18 9C18 4.02944 13.9706 0 9 0C4.02944 0 0 4.02944 0 9C0 13.9706 4.02944 18 9 18ZM5.53033 4.46967C5.23744 4.17678 4.76256 4.17678 4.46967 4.46967C4.17678 4.76256 4.17678 5.23744 4.46967 5.53033L7.93934 9L4.46967 12.4697C4.17678 12.7626 4.17678 13.2374 4.46967 13.5303C4.76256 13.8232 5.23744 13.8232 5.53033 13.5303L9 10.0607L12.4697 13.5303C12.7626 13.8232 13.2374 13.8232 13.5303 13.5303C13.8232 13.2374 13.8232 12.7626 13.5303 12.4697L10.0607 9L13.5303 5.53033C13.8232 5.23744 13.8232 4.76256 13.5303 4.46967C13.2374 4.17678 12.7626 4.17678 12.4697 4.46967L9 7.93934L5.53033 4.46967Z" fill="#F74E4E"/>
</g>
<defs>
<clipPath id="clip0_77_141">
<rect width="18" height="18" fill="white"/>
</clipPath>
</defs>
</svg>
