<svg width="34" height="34" viewBox="0 0 34 34" fill="none" xmlns="http://www.w3.org/2000/svg">
<g clip-path="url(#clip0_352_1424)">
<path fill-rule="evenodd" clip-rule="evenodd" d="M17 34C26.3888 34 34 26.3888 34 17C34 7.61116 26.3888 0 17 0C7.61116 0 0 7.61116 0 17C0 26.3888 7.61116 34 17 34ZM18.2684 19.5549L18.4842 11.1379H15.9276L16.1434 19.5549H18.2684ZM17.2225 20.5344C16.4422 20.5261 15.8114 21.1487 15.828 21.9123C15.8114 22.6843 16.4422 23.3069 17.2225 23.3069C17.9613 23.3069 18.6004 22.6843 18.6004 21.9123C18.6004 21.1487 17.9613 20.5261 17.2225 20.5344Z" fill="#FE6F61"/>
</g>
<defs>
<clipPath id="clip0_352_1424">
<rect width="34" height="34" fill="white"/>
</clipPath>
</defs>
</svg>
