<svg width="20" height="20" viewBox="0 0 20 20" fill="none" xmlns="http://www.w3.org/2000/svg">
<g clip-path="url(#clip0_942_2285)">
<path fill-rule="evenodd" clip-rule="evenodd" d="M10 2.5C8.01088 2.5 6.10322 3.29018 4.6967 4.6967C3.29018 6.10322 2.5 8.01088 2.5 10C2.5 11.9891 3.29018 13.8968 4.6967 15.3033C6.10322 16.7098 8.01088 17.5 10 17.5C11.9891 17.5 13.8968 16.7098 15.3033 15.3033C16.7098 13.8968 17.5 11.9891 17.5 10C17.5 8.01088 16.7098 6.10322 15.3033 4.6967C13.8968 3.29018 11.9891 2.5 10 2.5ZM0 10C0 7.34784 1.05357 4.8043 2.92893 2.92893C4.8043 1.05357 7.34784 0 10 0C12.6522 0 15.1957 1.05357 17.0711 2.92893C18.9464 4.8043 20 7.34784 20 10C20 12.6522 18.9464 15.1957 17.0711 17.0711C15.1957 18.9464 12.6522 20 10 20C7.34784 20 4.8043 18.9464 2.92893 17.0711C1.05357 15.1957 0 12.6522 0 10Z" fill="white"/>
<path fill-rule="evenodd" clip-rule="evenodd" d="M17.0713 2.92873C17.3056 3.16314 17.4373 3.48102 17.4373 3.81248C17.4373 4.14393 17.3056 4.46182 17.0713 4.69623L4.69627 17.0712C4.46052 17.2989 4.14477 17.4249 3.81702 17.4221C3.48927 17.4192 3.17576 17.2878 2.944 17.056C2.71224 16.8242 2.58078 16.5107 2.57793 16.183C2.57508 15.8552 2.70107 15.5395 2.92877 15.3037L15.3038 2.92873C15.5382 2.69439 15.8561 2.56274 16.1875 2.56274C16.519 2.56274 16.8369 2.69439 17.0713 2.92873Z" fill="white"/>
</g>
<defs>
<clipPath id="clip0_942_2285">
<rect width="20" height="20" fill="white"/>
</clipPath>
</defs>
</svg>
