<svg width="20" height="20" viewBox="0 0 20 20" fill="none" xmlns="http://www.w3.org/2000/svg">
<g clip-path="url(#clip0_88_910)">
<path d="M13.5529 7.27843L10.8314 10L13.5529 12.7216C13.6107 12.7754 13.6571 12.8404 13.6892 12.9125C13.7214 12.9847 13.7387 13.0626 13.7401 13.1415C13.7415 13.2205 13.7269 13.299 13.6974 13.3722C13.6678 13.4455 13.6237 13.512 13.5679 13.5679C13.512 13.6237 13.4455 13.6678 13.3722 13.6973C13.299 13.7269 13.2205 13.7415 13.1416 13.7401C13.0626 13.7387 12.9847 13.7214 12.9125 13.6892C12.8404 13.6571 12.7754 13.6107 12.7216 13.5529L10 10.8314L7.27843 13.5529C7.16692 13.6568 7.01944 13.7134 6.86704 13.7107C6.71465 13.708 6.56925 13.6463 6.46148 13.5385C6.3537 13.4307 6.29197 13.2853 6.28928 13.133C6.28659 12.9806 6.34316 12.8331 6.44706 12.7216L9.16863 10L6.44706 7.27843C6.34316 7.16692 6.28659 7.01943 6.28928 6.86704C6.29197 6.71465 6.3537 6.56925 6.46148 6.46147C6.56925 6.3537 6.71465 6.29196 6.86704 6.28927C7.01944 6.28658 7.16692 6.34315 7.27843 6.44706L10 9.16863L12.7216 6.44706C12.8331 6.34315 12.9806 6.28658 13.133 6.28927C13.2854 6.29196 13.4308 6.3537 13.5385 6.46147C13.6463 6.56925 13.708 6.71465 13.7107 6.86704C13.7134 7.01943 13.6568 7.16692 13.5529 7.27843ZM20 10C20 11.9778 19.4135 13.9112 18.3147 15.5557C17.2159 17.2002 15.6541 18.4819 13.8268 19.2388C11.9996 19.9957 9.98891 20.1937 8.0491 19.8078C6.10929 19.422 4.32746 18.4696 2.92894 17.0711C1.53041 15.6725 0.578004 13.8907 0.192152 11.9509C-0.1937 10.0111 0.00433267 8.00043 0.761209 6.17316C1.51809 4.3459 2.79981 2.78412 4.4443 1.6853C6.08879 0.58649 8.02219 0 10 0C12.6512 0.00311358 15.1929 1.05768 17.0676 2.93237C18.9423 4.80706 19.9969 7.34879 20 10ZM18.8235 10C18.8235 8.25487 18.306 6.54893 17.3365 5.09791C16.367 3.64689 14.9889 2.51595 13.3766 1.84812C11.7643 1.18029 9.99022 1.00555 8.27862 1.34601C6.56702 1.68647 4.99482 2.52683 3.76083 3.76082C2.52683 4.99481 1.68647 6.56702 1.34602 8.27861C1.00556 9.99021 1.18029 11.7643 1.84813 13.3766C2.51596 14.9889 3.64689 16.367 5.09791 17.3365C6.54894 18.306 8.25487 18.8235 10 18.8235C12.3394 18.8209 14.5821 17.8905 16.2363 16.2363C17.8905 14.5821 18.8209 12.3393 18.8235 10Z" fill="white"/>
</g>
<defs>
<clipPath id="clip0_88_910">
<rect width="20" height="20" fill="white"/>
</clipPath>
</defs>
</svg>
